<svg xmlns="http://www.w3.org/2000/svg" width="856.746" height="690.553" data-name="Layer 1"><circle cx="241.167" cy="361.995" r="97.2" fill="#e6e6e6"/><path fill="#ccc" d="m214.906 503.933 23.91 14.816V418.598l-26.8-16.608a10.396 10.396 0 0 1-4.537-6.038 10.396 10.396 0 0 1 7.427 1.374l23.91 14.816v-38.835a91.89 91.89 0 0 1 2.743-22.287 91.887 91.887 0 0 1 2.744 22.287v63.387l35.274-21.858a17.286 17.286 0 0 1 9.388-2.59 17.287 17.287 0 0 1-6.498 7.254l-38.164 23.65V680h-5.488V525.205l-26.8-16.608a10.396 10.396 0 0 1-4.536-6.038 10.396 10.396 0 0 1 7.427 1.374Z"/><circle cx="97.2" cy="370.247" r="97.2" fill="#e6e6e6"/><path fill="#ccc" d="m123.462 512.186-23.91 14.816V426.851l26.8-16.608a10.396 10.396 0 0 0 4.537-6.038 10.396 10.396 0 0 0-7.427 1.374l-23.91 14.816V381.56a91.889 91.889 0 0 0-2.744-22.286 91.888 91.888 0 0 0-2.743 22.286v63.388L58.79 423.089a17.286 17.286 0 0 0-9.388-2.59 17.287 17.287 0 0 0 6.498 7.254l38.164 23.65v229.12h5.487V533.457l26.8-16.607a10.396 10.396 0 0 0 4.537-6.038 10.396 10.396 0 0 0-7.427 1.374Z"/><circle cx="167.808" cy="167.355" r="167.355" fill="#e6e6e6"/><path fill="#ccc" d="m213.024 411.737-41.167 25.51V264.81L218 236.217a17.9 17.9 0 0 0 7.81-10.397 17.9 17.9 0 0 0-12.786 2.367l-41.167 25.51V186.83a158.211 158.211 0 0 0-4.723-38.371 158.208 158.208 0 0 0-4.724 38.37v109.138l-60.733-37.634a29.763 29.763 0 0 0-16.165-4.46 29.763 29.763 0 0 0 11.189 12.49l65.709 40.718V680.89h9.447V448.36L218 419.768a17.9 17.9 0 0 0 7.81-10.397h.001a17.9 17.9 0 0 0-12.787 2.367Z"/><path fill="#3f3d56" d="M66.746 680h790v2h-790z"/><path fill="#ff6584" d="m614.081 324.571 39.209-22.637 22.637 39.208-39.209 22.637z"/><path fill="#2f2e41" d="M653.788 371.952 630.15 331.01l40.942-23.638 23.637 40.942Zm-20.905-40.21 21.637 37.477 37.477-21.636-21.638-37.477Z"/><circle cx="617.108" cy="462.969" r="19" fill="#d0cde1"/><path fill="#2f2e41" d="M631.108 482.969a20 20 0 1 1 20-20 20 20 0 0 1-20 20Zm0-38a18 18 0 1 0 18 18 18 18 0 0 0-18-18Z"/><path fill="#6c63ff" d="M736.97 684.549h-184a8.51 8.51 0 0 1-8.5-8.5v-171a8.51 8.51 0 0 1 8.5-8.5h184a8.51 8.51 0 0 1 8.5 8.5v171a8.51 8.51 0 0 1-8.5 8.5Z"/><path fill="#3f3d56" d="M657.969 690.553h-26a8.51 8.51 0 0 1-8.5-8.5V499.969a8.51 8.51 0 0 1 8.5-8.5h26a8.51 8.51 0 0 1 8.5 8.5v182.084a8.51 8.51 0 0 1-8.5 8.5ZM785.857 479.622c-1.075 17.64-24.904 30.541-24.904 30.541s-22.086-15.699-21.011-33.34 24.904-30.541 24.904-30.541 22.086 15.7 21.01 33.34Z"/><path fill="#3f3d56" d="M786.936 534.66c-17.644-1.02-30.62-24.808-30.62-24.808s15.631-22.135 33.275-21.115 30.62 24.809 30.62 24.809-15.631 22.135-33.275 21.115Z"/><path d="M744.97 517.469v65.28l-64.93-85.7h49.46l15.47 20.42z" opacity=".1" style="isolation:isolate"/><path fill="#6c63ff" d="M800.092 629.214a8.489 8.489 0 0 1-6.784-3.363L658.033 447.31a8.5 8.5 0 0 1 1.642-11.909l19.927-15.097a8.498 8.498 0 0 1 11.907 1.642l135.275 178.54a8.5 8.5 0 0 1-1.642 11.909l-19.927 15.097a8.454 8.454 0 0 1-5.123 1.722Z"/><path fill="#3f3d56" d="m711.672 516.449 34.273-25.968 25.968 34.273-34.273 25.968z"/><path fill="#d0cde1" d="m557.919 403.606 11.718-43.732 43.731 11.718-11.718 43.731z"/><path fill="#2f2e41" d="m583.099 421.861-45.663-12.235 12.235-45.664 45.663 12.235Zm-43.214-13.65 41.8 11.2 11.2-41.8-41.8-11.2Z"/><path fill="#ffb8b8" d="M390.75 528a11.382 11.382 0 0 0-1.166-17.415l-18.364-148.03-23.726 7.054 25.614 144.059a11.444 11.444 0 0 0 17.641 14.331ZM412.742 669.489h13.877l6.605-53.525h-20.482v53.525z"/><path fill="#2f2e41" d="M453.382 682.375H409.77v-16.85h28.304a15.31 15.31 0 0 1 15.31 15.309v1.541Z"/><path fill="#ffb8b8" d="m316.779 647.875 13.007 4.838 24.85-47.865-19.196-7.141-18.661 50.168z"/><path fill="#2f2e41" d="M350.377 674.12 309.5 658.915l5.875-15.793 26.528 9.868a15.31 15.31 0 0 1 9.011 19.686l-.537 1.444Z"/><circle cx="387.848" cy="297.888" r="26.239" fill="#ffb8b8"/><path fill="#2f2e41" d="M346.807 365.23c-.821-24.168 24.58-40.935 45.95-29.619 2.723 1.442 30.838 25.328 31.897 40.161s3.18 39.203 3.18 39.203L457.5 636.418l-63.572-3.179 7.678-64.598-41.322 65.691-50.06-15.926 61.454-176.943s-23.626-39.607-24.87-76.233Z"/><path fill="#2f2e41" d="m347.308 373.644 4.082 53.068a2.206 2.206 0 0 0 2.2 2.037h17.961a2.206 2.206 0 0 0 2.037-3.052l-22.043-53.069a2.206 2.206 0 0 0-4.237 1.016Z"/><path fill="#ffb8b8" d="M439.548 518.804a11.382 11.382 0 0 0-3.195-17.158l-35.561-144.864-22.738 9.783 42.298 140.07a11.444 11.444 0 0 0 19.196 12.17Z"/><path fill="#2f2e41" d="M381.214 343.986s-7.417 14.834 0 41.322 12.714 48.739 12.714 48.739 16.953-10.596 24.37-7.417-11.733-70.61-11.733-70.61-11.577-24.748-25.351-12.034ZM394.005 301.982c.355-5.444 7.223-5.63 12.679-5.682s11.978.143 15.065-4.356c2.04-2.973 1.65-7.1-.035-10.288s-4.457-5.639-7.185-7.997c-7.041-6.089-14.298-12.13-22.752-16.027s-18.36-5.472-27.128-2.343c-10.77 3.843-25.33 23.626-26.586 34.992s3.285 22.952 10.942 31.446 25.181 5.066 36.21 8.088c-6.705-9.49-2.285-26.733 8.456-31.164Z"/></svg>