<svg xmlns="http://www.w3.org/2000/svg" width="866.64" height="586" data-name="Layer 1"><path fill="#f2f2f2" d="M425.833 394.634a116.358 116.358 0 0 0-3.223 1.9 266.156 266.156 0 0 0-22.01 85.883q-.445 5.144-.654 10.281a258.434 258.434 0 0 0 8.064 76.263q.512 1.965 1.05 3.915c.257.933.52 1.874.807 2.801l.97 1.43c.023.02.042.056.066.077.13.191.259.382.374.57.556.811 1.121 1.619 1.677 2.43l-.496.014-1.243.03.005.008c.416.008.842.011 1.262.006.153.006.319.017.475.01.14.002.287 0 .426.003 17.9.23 36.233.067 52.795-6.596 17.336-6.98 32.443-22.964 32.453-41.646a33.505 33.505 0 0 0-.816-7.273 42.997 42.997 0 0 0-.792-2.96 35.277 35.277 0 0 0-60.034-13.481c5.646-18.986 26.99-27.938 46.098-33.135 19.123-5.194 40.619-10.567 50.957-27.464 5.77-9.402 6.347-20.602 3.245-31.09a28.25 28.25 0 0 0-.303-.953 51.476 51.476 0 0 0-23.679-29.147c-21.155-11.546-47.53-8.823-70.023-.168a127.597 127.597 0 0 0-17.451 8.292Z"/><path fill="#fff" d="M482.733 521.29a79.429 79.429 0 0 0-46.461 18.074 81.279 81.279 0 0 0-24.539 35.307 58.552 58.552 0 0 0-.788 2.364c-.396-.833-.78-1.684-1.158-2.527-.243-.54-.492-1.088-.727-1.632.257.933.52 1.874.807 2.801.326.483.648.956.97 1.43.022.02.042.056.065.077.13.191.26.382.375.57.556.811 1.121 1.619 1.677 2.43l-.496.014-1.243.03.005.008c.416.008.842.011 1.262.006.153.006.319.017.475.01.061-.24.135-.476.21-.713a76.745 76.745 0 0 1 84.647-54.8 42.985 42.985 0 0 0-.792-2.958 82.1 82.1 0 0 0-14.29-.491ZM429.203 448.094a87.39 87.39 0 0 0-18.602 17.293 72.501 72.501 0 0 0-7.295 11.33 73.565 73.565 0 0 0-2.706 5.7q-.445 5.144-.654 10.281a74.877 74.877 0 0 1 2.608-7.558 66.893 66.893 0 0 1 1.709-3.999c6.816-14.692 18.556-26.038 32.204-34.477 14.625-9.028 30.968-15.59 47.453-20.298a215.092 215.092 0 0 1 51.89-8.22 1.543 1.543 0 0 0 1.479-1.535 1.327 1.327 0 0 0-.303-.954 1.102 1.102 0 0 0-.933-.338c-2.168.075-4.33.16-6.495.303a217.641 217.641 0 0 0-52.99 10.024c-16.583 5.312-33.068 12.4-47.365 22.448Z"/><circle cx="521.614" cy="363.017" r="6" fill="#f2f2f2"/><path fill="#3f3d56" d="M391.855 585.957H32.157A32.193 32.193 0 0 1 0 553.8V32.157A32.193 32.193 0 0 1 32.157 0h359.698a32.193 32.193 0 0 1 32.157 32.157V553.8a32.193 32.193 0 0 1-32.157 32.157Z"/><path fill="#fff" d="M392.488 565.44H31.524a9.924 9.924 0 0 1-9.913-9.913V30.43a9.924 9.924 0 0 1 9.913-9.912h360.964a9.924 9.924 0 0 1 9.913 9.912v525.098a9.924 9.924 0 0 1-9.913 9.913Z"/><circle cx="210.638" cy="9.848" r="2.736" fill="#fff"/><path fill="#f0f0f0" d="M374.871 408.259H49.141a4.817 4.817 0 0 1-4.813-4.812V112.51a4.817 4.817 0 0 1 4.812-4.812h325.731a4.817 4.817 0 0 1 4.812 4.812v290.937a4.817 4.817 0 0 1-4.812 4.812Z"/><path fill="#fff" d="M348.22 315.722H76.532a4.817 4.817 0 0 1-4.812-4.812V143.602a4.817 4.817 0 0 1 4.812-4.812h271.69a4.818 4.818 0 0 1 4.812 4.812V310.91a4.818 4.818 0 0 1-4.812 4.812ZM285.665 382.348H81.343a9.624 9.624 0 1 1 0-19.247h204.322a9.624 9.624 0 0 1 0 19.247ZM219.779 349.405H81.343a9.624 9.624 0 1 1 0-19.248H219.78a9.624 9.624 0 0 1 0 19.248Z"/><path fill="#2f2e41" d="M233.949 316.403c.333-.104.659-.208.992-.311a63.984 63.984 0 0 0 44.336-63.348 63.128 63.128 0 0 0-3.894-19.595 63.89 63.89 0 1 0-80.433 82.61c.333.118.673.23 1.007.333h18.322Z"/><path fill="#2f2e41" d="m196.956 302.848-2.007 12.911-.051.333h-19.64l1.547-9.95 1.051-6.751 19.1 3.457zM233.948 316.403l.052-.311 1.148-6.33-19.1-3.457-1.769 9.787 19.669.311z"/><circle cx="219.905" cy="239.619" r="21.833" fill="#fff"/><circle cx="228.878" cy="231.793" r="7.278" fill="#3f3d56"/><path fill="#6c63ff" d="M165.039 185.748c-.961-23.65 19.422-43.682 45.526-44.742s48.045 17.252 49.006 40.902-17.185 29.024-43.29 30.084-50.282-2.594-51.242-26.244Z"/><ellipse cx="441.099" cy="400.607" fill="#2f2e41" rx="31.941" ry="10.027" transform="rotate(-12.91 -336.066 1058.71)"/><ellipse cx="315.701" cy="421.46" fill="#2f2e41" rx="31.941" ry="10.027" transform="rotate(-12.91 -461.464 1079.563)"/><path fill="#fff" d="M197.887 280.42a14.555 14.555 0 0 0 28.641 5.211l.005-.025c1.432-7.91-4.684-10.71-12.594-12.141s-14.62-.955-16.052 6.955Z"/><path fill="#6c63ff" d="M342.107 364.58a6.278 6.278 0 1 0-8.9 8.857l.021.021 8.879 8.879 8.878-8.879a6.278 6.278 0 0 0-8.878-8.878ZM532.107 145.84a6.278 6.278 0 0 0-8.9 8.857l.021.021 8.879 8.879 8.878-8.879a6.278 6.278 0 0 0-8.878-8.878ZM544.11 106.19a7.723 7.723 0 0 0-12.085-.033 11.135 11.135 0 0 0-.03 14.068l.03.034 12.086 14.068 12.085-14.068a11.135 11.135 0 0 0-.031-14.068 7.72 7.72 0 0 0-12.054 0Z"/><path fill="#9e616a" d="M718.684 575.1h-11.199l-5.329-43.2 16.53.001-.002 43.199z"/><path fill="#2f2e41" d="m721.54 585.957-36.112-.002v-.457a14.057 14.057 0 0 1 14.056-14.056l22.057.001Z"/><path fill="#9e616a" d="M615.454 575.1h-11.2l-5.328-43.2 16.53.001-.002 43.199z"/><path fill="#2f2e41" d="m618.31 585.957-36.113-.002v-.457a14.057 14.057 0 0 1 14.056-14.056h.001l22.057.001Z"/><path fill="#9e616a" d="m628.977 228.045-7.309 46.591 69.43.914-9.136-44.764-52.985-2.741z"/><path fill="#2f2e41" d="m623.683 263.26-22.113 58.88-2.74 244.01h18.727l44.764-196.048 41.11 190.93h18.27l-12.79-214.683s3.772-43.089-15.53-68.515l-4.698-13.574Z"/><path fill="#9e616a" d="M718.535 309.16a13.705 13.705 0 0 1-8.78-19.093l-29.537-96.295 21.725-4.307 27.014 94.39a13.78 13.78 0 0 1-10.422 25.305Z"/><path fill="#e4e4e4" d="m679.447 253.776-47.86-.924a6.257 6.257 0 0 1-5.93-4.714c-2.565-10.158-8.21-36.631-5.216-62.999a38.452 38.452 0 0 1 43.705-33.637 38.47 38.47 0 0 1 31.757 47.852c-6.025 22.878-9.428 39.245-10.114 48.648a6.243 6.243 0 0 1-5.001 5.656 6.223 6.223 0 0 1-1.208.12l-.133-.002Z"/><path fill="#9e616a" d="M545.87 169.191a13.43 13.43 0 0 1 .706 1.993l59.907 20.357 11.575-10.113 17.545 15.475-18.752 19.894a10.206 10.206 0 0 1-12.07 2.089l-64.103-32.744a13.392 13.392 0 1 1 5.192-16.95Z"/><path fill="#e4e4e4" d="M606.607 188.295a5.735 5.735 0 0 1 2.017-4.335l21.935-18.684a15.944 15.944 0 0 1 24.078 20.906l-15.62 24.324a5.741 5.741 0 0 1-8.607 1.222l-21.839-19.074a5.735 5.735 0 0 1-1.964-4.36ZM678.894 218.164a5.735 5.735 0 0 1-2.918-3.786l-6.486-28.075a15.944 15.944 0 0 1 29.646-11.747l14.399 25.066a5.741 5.741 0 0 1-2.879 8.203l-26.988 10.602a5.735 5.735 0 0 1-4.774-.263Z"/><circle cx="830.343" cy="272.843" r="29.356" fill="#9e616a" transform="rotate(-28.663 439.743 520.547)"/><path fill="#2f2e41" d="M628.07 99.26h46.613V78.941c-10.23-4.064-20.243-7.521-26.295 0a20.319 20.319 0 0 0-20.318 20.32Z"/><path fill="#2f2e41" d="M677.264 75.356c27.867 0 35.666 34.93 35.666 54.635 0 10.99-4.97 14.92-12.78 16.25l-2.757-14.71-6.46 15.343c-2.194.01-4.499-.032-6.888-.076l-2.19-4.51-4.885 4.43c-19.561.028-35.372 2.88-35.372-16.727 0-19.706 6.84-54.635 35.666-54.635Z"/><path fill="#3f3d56" d="M865.64 586h-548a1 1 0 0 1 0-2h548a1 1 0 0 1 0 2Z"/></svg>