<svg width="525" height="393" viewBox="0 0 525 393" fill="none" xmlns="http://www.w3.org/2000/svg">
<g clip-path="url(#clip0_583_3434)">
<path d="M146.06 297.499L116.45 300.719L102.28 291.059L94.0801 300.719L98.0201 321.099L102.52 337.189L129.85 323.309L151.86 321.319L146.06 297.499Z" fill="#A0616A"/>
<path d="M296.09 263.369L224.62 262.079L137.69 298.779L149.28 323.899L227.84 301.999L349.53 336.769L332.79 254.359L296.09 263.369Z" fill="#C81640"/>
<path d="M100.05 299.839L114.26 298.729L96.19 260.559C96.19 260.559 87.82 257.599 86.53 266.809C85.24 276.009 96.23 338.339 99.45 338.339C102.67 338.339 113.47 332.039 113.47 332.039L97.48 301.769L100.06 299.839L100.05 299.839Z" fill="#1565C0"/>
<path d="M456.35 289.389C454.92 289.539 453.36 289.769 451.7 290.109C444.66 291.539 444.52 296.319 444.58 297.409L444.53 297.379C443.82 298.509 443.38 299.659 443.11 300.749L442.79 286.109C443 285.679 443.19 285.179 443.35 284.679C443.88 286.299 444.74 287.829 445.48 287.729C446.45 287.599 446.87 284.749 446.69 282.729C447.92 284.309 449.99 286.009 450.77 285.489C451.39 285.069 451.02 283.349 450.34 281.789C451.76 282.649 453.33 283.209 453.82 282.659C454.49 281.919 452.89 279.389 451.42 277.979C453.39 278.159 455.9 277.849 456.06 276.949C456.2 276.209 454.7 275.279 453.11 274.679C454.71 274.259 456.21 273.519 456.16 272.789C456.1 271.919 453.88 271.339 451.96 271.259C453.41 270.129 454.74 268.559 454.33 267.849C453.96 267.199 452.22 267.449 450.61 268.019C451.56 266.659 452.23 265.129 451.72 264.609C451.09 263.959 448.84 265.079 447.3 266.329C447.6 264.389 447.45 261.939 446.58 261.719C445.85 261.529 444.82 262.959 444.11 264.509C443.8 262.879 443.16 261.339 442.43 261.339C441.39 261.339 440.55 264.479 440.55 266.519V266.849C440.45 266.729 440.33 266.599 440.19 266.469C438.72 265.049 435.89 263.469 435.16 264.209C434.65 264.729 435.32 266.259 436.27 267.619C434.66 267.049 432.92 266.789 432.55 267.449C432.05 268.329 434.2 270.509 435.94 271.569C435.84 271.559 435.72 271.549 435.61 271.539C433.57 271.399 430.38 272.029 430.31 273.069C430.26 273.799 431.76 274.539 433.36 274.959C431.76 275.559 430.27 276.489 430.41 277.229C430.57 278.129 433.08 278.439 435.05 278.259C433.58 279.669 431.98 282.199 432.65 282.939C433.14 283.479 434.71 282.919 436.13 282.069C435.45 283.629 435.08 285.349 435.7 285.769C436.52 286.319 438.79 284.399 439.98 282.749C439.86 284.769 440.34 287.549 441.3 287.659C441.7 287.709 442.13 287.279 442.51 286.619L441.42 302.359C441.17 304.189 442.79 305.389 442.94 306.139L443.17 316.799C442.91 316.039 442.55 315.259 442.07 314.489L442.02 314.519C442.08 313.419 441.94 308.649 434.9 307.219C433.24 306.879 431.68 306.649 430.25 306.499C428.56 306.319 427.9 308.629 429.43 309.379C431.64 310.459 433.72 311.819 434.8 313.429C437.57 317.549 441.39 315.169 441.94 314.799C442.55 315.809 442.95 316.829 443.2 317.799L443.32 323.459C443.29 323.589 443.27 323.669 443.27 323.669L443.33 323.689L443.63 337.389L446.43 337.369L445.43 323.369C445.6 322.609 446.12 320.039 445.43 317.369L444.43 306.369L443.13 302.049C443.32 300.709 443.76 299.209 444.65 297.719C445.19 298.089 449.02 300.469 451.79 296.349C452.87 294.739 454.95 293.379 457.16 292.299C458.68 291.549 458.03 289.239 456.34 289.419V289.389L456.35 289.389ZM443.59 321.799L443.54 319.399C443.65 320.309 443.64 321.119 443.59 321.799Z" fill="#F2F2F2"/>
<path d="M0 337.109C0 337.769 0.53 338.299 1.19 338.299H523.48C524.14 338.299 524.67 337.769 524.67 337.109C524.67 336.449 524.14 335.919 523.48 335.919H1.19C0.53 335.919 0 336.449 0 337.109Z" fill="#E2F4FF"/>
<path d="M346.55 177.509L353.64 153.689L374.24 153.039L382.61 182.659L346.55 177.509Z" fill="#A0616A"/>
<path opacity="0.1" d="M346.55 177.509L353.64 153.689L374.24 153.039L382.61 182.659L346.55 177.509Z" fill="black"/>
<path d="M378.18 174.189L344.7 172.899L334.32 194.249L318.3 288.799L402.33 307.789C402.33 307.789 407.48 202.189 395.89 187.379C384.3 172.569 378.18 174.179 378.18 174.179V174.189Z" fill="#E6E6E6"/>
<path d="M280.12 100.149C278.72 92.6992 273.75 87.3692 269 88.2592C264.25 89.1492 261.54 95.9092 262.94 103.369C263.46 106.359 264.68 109.169 266.51 111.589L272.82 143.099L285.27 140.569L279.75 109.109C280.58 106.189 280.7 103.119 280.1 100.149L280.12 100.149Z" fill="#A0616A"/>
<path d="M373.17 182.769L304.79 169.299L285.57 111.499L264.04 116.599L285.64 201.979L363.04 212.159L373.17 182.769Z" fill="#E6E6E6"/>
<path d="M269.03 7.56914C268.96 7.63914 268.9 7.69914 268.83 7.76914C258.48 -2.51086 241.8 -2.60086 231.33 7.56914C220.83 17.7691 220.47 34.5191 230.53 45.1591L230.78 45.4191L267.83 83.5691L306.24 46.2691L306.13 46.1591C306.19 46.0991 306.26 46.0391 306.33 45.9791C316.94 35.6791 317.18 18.7291 306.88 8.12914C296.58 -2.48086 279.63 -2.72086 269.03 7.57914V7.56914Z" fill="#1565C0"/>
<path d="M278.19 196.769C278.07 196.889 277.95 197.019 277.83 197.139C258.76 178.219 228.05 178.049 208.77 196.769C189.43 215.559 188.77 246.409 207.3 265.999L207.76 266.489L276 336.749L346.73 268.049L346.53 267.849C346.65 267.739 346.77 267.629 346.89 267.519C366.42 248.549 366.88 217.339 347.91 197.799C328.94 178.269 297.73 177.809 278.19 196.779V196.769Z" fill="#1565C0"/>
<path d="M382.52 275.079C382.52 275.079 407.79 296.129 398.41 308.899C389.04 321.669 357.16 344.529 342.76 337.439C328.36 330.349 298.47 279.109 298.47 279.109L290.65 331.599L270.19 329.789C270.19 329.789 255.33 255.649 269.03 244.279C282.74 232.909 345.14 253.009 345.14 253.009L382.51 275.089L382.52 275.079Z" fill="#C81640"/>
<path d="M275.3 322.819L269.44 341.029L257.23 358.139L266.59 372.149L296.34 352.559L296.24 342.479L291.57 336.189L288.27 324.129L275.3 322.819Z" fill="#A0616A"/>
<path d="M265.94 365.249L258.47 353.109L232.75 386.599C232.75 386.599 233.94 395.399 242.72 392.339C251.5 389.279 305.93 361.379 304.46 358.509C302.99 355.639 296.96 340.219 296.96 340.219L268.84 366.649L265.95 365.239L265.94 365.249Z" fill="#1565C0"/>
<path d="M281.73 274.909C274.18 275.659 268.45 280.159 268.93 284.959C269.41 289.759 275.91 293.049 283.46 292.299C286.48 292.039 289.39 291.059 291.96 289.449L323.89 285.879L322.44 273.259L290.62 276.049C287.79 274.969 284.74 274.579 281.73 274.919L281.73 274.909Z" fill="#A0616A"/>
<path d="M372.07 189.329L352.75 256.289L293.51 270.449L296.73 292.349L383.66 278.179L400.47 201.949L372.07 189.329Z" fill="#E6E6E6"/>
<path d="M361.32 160.819C376.43 160.819 388.68 148.57 388.68 133.459C388.68 118.349 376.43 106.099 361.32 106.099C346.209 106.099 333.96 118.349 333.96 133.459C333.96 148.57 346.209 160.819 361.32 160.819Z" fill="#A0616A"/>
<path d="M363.5 96.6691C362.71 97.1291 361.65 96.4291 361.39 95.5491C361.14 94.6691 361.43 93.7291 361.73 92.8691C362.22 91.4091 362.71 89.9491 363.21 88.4991C364.26 85.3991 365.37 82.1891 367.64 79.8291C371.06 76.2691 376.5 75.3591 381.4 76.0191C387.69 76.8591 393.89 80.2691 396.82 85.8991C399.74 91.5291 398.5 99.3891 393.22 102.899C400.75 111.529 403.37 121.149 402.96 132.589C402.55 144.039 390.07 154.569 381.94 162.629C380.12 161.529 378.47 156.369 379.47 154.489C380.47 152.619 379.04 150.439 380.27 148.719C381.5 146.999 382.54 149.739 381.29 148.029C380.5 146.949 383.58 144.449 382.41 143.809C376.74 140.669 374.85 133.599 371.28 128.179C366.98 121.649 359.62 117.219 351.84 116.489C347.55 116.089 343.02 116.819 339.51 119.309C335.99 121.799 333.72 126.249 334.53 130.479C332.42 128.339 331.37 125.189 331.76 122.209C332.16 119.229 333.99 116.469 336.59 114.949C335.01 109.729 336.36 103.719 340.03 99.6791C343.7 95.6391 358.57 96.3291 363.92 97.3891L363.51 96.6791L363.5 96.6691Z" fill="#C81640" fill-opacity="0.72"/>
<path d="M364.34 116.639C371.43 117.409 376.55 123.549 380.87 129.219C383.36 132.489 385.97 136.099 385.91 140.209C385.85 144.359 383.07 147.929 381.74 151.869C379.57 158.309 381.68 165.959 386.85 170.369C381.75 171.339 376.23 167.509 375.35 162.389C374.32 156.429 378.84 150.679 378.31 144.649C377.84 139.339 373.66 135.259 370.1 131.289C366.54 127.319 363.21 122.059 364.84 116.989L364.34 116.649L364.34 116.639Z" fill="#2F2E41"/>
</g>
<defs>
<clipPath id="clip0_583_3434">
<rect width="524.67" height="392.985" fill="white"/>
</clipPath>
</defs>
</svg>
