<svg xmlns="http://www.w3.org/2000/svg" width="685.67" height="428.525"><path fill="#3f3d56" d="M0 427.11c0 .66.53 1.19 1.19 1.19h683.29c.66 0 1.19-.53 1.19-1.19 0-.66-.53-1.19-1.19-1.19H1.19c-.66 0-1.19.53-1.19 1.19Z"/><path fill="#3f3d56" d="M283.497 428H69.917c-8.53 0-15.469-6.94-15.469-15.469V15.468C54.448 6.94 61.388 0 69.917 0h213.58c8.529 0 15.468 6.939 15.468 15.468v397.063c0 8.53-6.94 15.469-15.468 15.469ZM69.917 2C62.49 2 56.448 8.042 56.448 15.468v397.063c0 7.427 6.042 13.469 13.469 13.469h213.58c7.426 0 13.468-6.042 13.468-13.469V15.468C296.965 8.042 290.923 2 283.497 2H69.917Z"/><g fill="#f2f2f2"><path d="M666.534 201.907c-.844-1.424-4.497.1-5.168-1.192-.67-1.287 2.724-3.248 4.663-7.73.35-.807 2.553-5.9.922-7.471-3.092-2.978-17.24 9.313-22.19 5.29-1.088-.882-1.847-2.644-5.135-5.505-1.308-1.139-2.1-1.652-2.865-1.461-1.087.271-1.173 1.725-2.338 4.584-1.747 4.287-2.78 4.028-3.798 7.449-.755 2.539-.583 4.015-1.472 4.303-1.258.407-2.416-2.287-4.01-2.045-1.628.246-2.612 3.382-2.923 5.73-.583 4.406 1.035 7.313 1.932 10.37.975 3.323 1.553 8.375-.697 15.528l-22.278 62.766c4.919-12.88 19.159-48.185 25.143-61.305 1.727-3.788 3.634-7.63 7.55-9.146 3.771-1.46 8.95-.588 15.55-2.178.772-.186 2.911-.73 3.18-1.989.223-1.04-1.035-1.62-.842-2.595.26-1.307 2.734-1.323 5.776-2.831 2.144-1.063 3.48-2.328 4.629-3.415.346-.328 5.495-5.262 4.371-7.157Z"/><path d="M578.889 234.95c-.943.003-1.248 2.236-2.076 2.192-.825-.043-.809-2.274-2.448-4.519-.296-.404-2.16-2.955-3.402-2.608-2.353.658-.403 11.148-3.806 12.418-.746.278-1.83.143-4.183.931-.937.314-1.417.554-1.544.985-.18.611.508 1.073 1.575 2.47 1.6 2.094 1.175 2.527 2.56 4.013 1.029 1.104 1.803 1.445 1.688 1.964-.164.735-1.82.527-2.161 1.379-.349.87.906 2.257 1.969 3.087 1.994 1.557 3.888 1.602 5.647 2.044 1.912.48 4.559 1.654 7.42 4.823l24.378 29.044c-4.902-6.13-18.121-23.307-22.834-30.029-1.36-1.94-2.696-3.985-2.31-6.345.371-2.271 2.293-4.561 3.417-8.26.132-.432.482-1.64-.058-2.135-.446-.41-1.095.04-1.517-.335-.567-.505.14-1.724.277-3.652.097-1.359-.138-2.38-.34-3.257-.062-.265-.998-4.215-2.252-4.21ZM597.688 239.17l-.567-5.069.26-.384c1.2-1.776 1.811-3.512 1.819-5.159 0-.261-.011-.523-.024-.79-.049-1.057-.11-2.371.575-3.903.385-.854 1.464-2.832 3.086-2.587.437.061.768.262 1.018.497l.115-.181c.506-.771.906-1.102 1.291-1.42.296-.244.602-.496 1.082-1.094.21-.261.374-.491.513-.685.42-.585.968-1.282 1.934-1.27 1.033.05 1.574.903 1.932 1.468.64 1.009.93 1.736 1.122 2.218.07.176.15.374.19.435.333.49 3.038.032 4.057-.134 2.29-.382 4.27-.713 5.087.731.585 1.033.15 2.399-1.33 4.168-.461.55-.952.969-1.388 1.297.361.215.684.546.815 1.065.309 1.228-.747 2.459-3.137 3.663-.593.301-1.393.702-2.512.896a9.867 9.867 0 0 1-1.408.124c-.01.235-.064.49-.207.752-.42.77-1.294 1.138-2.61 1.05-1.449-.076-2.642-.353-3.694-.595-.92-.21-1.71-.39-2.332-.348-1.153.093-2.041 1.016-3.084 2.213l-2.602 3.042ZM600.322 208.994l-4.758 1.834-.438-.153c-2.023-.71-3.856-.862-5.451-.452-.254.066-.504.144-.759.223-1.01.316-2.266.708-3.922.434-.923-.155-3.11-.697-3.284-2.329a1.838 1.838 0 0 1 .222-1.11l-.204-.066c-.874-.293-1.295-.596-1.7-.888-.313-.225-.634-.457-1.333-.77-.307-.136-.571-.237-.793-.321-.672-.258-1.486-.611-1.72-1.55-.214-1.01.475-1.75.93-2.24a12.217 12.217 0 0 1 1.86-1.649c.154-.112.325-.239.374-.293.39-.447-.74-2.947-1.16-3.891-.95-2.118-1.771-3.95-.582-5.106.85-.828 2.282-.754 4.369.23.65.306 1.179.675 1.607 1.013.116-.404.354-.8.823-1.059 1.11-.61 2.568.1 4.34 2.106.44.498 1.032 1.169 1.503 2.203.22.487.363.94.478 1.33.229-.051.49-.062.779.01.852.21 1.429.962 1.677 2.258.294 1.42.33 2.645.362 3.724.03.942.058 1.754.255 2.344.383 1.092 1.5 1.717 2.923 2.422l3.602 1.746ZM597.688 194.063l-.567-5.069.26-.384c1.2-1.776 1.811-3.512 1.819-5.158 0-.262-.011-.524-.024-.79-.049-1.058-.11-2.372.575-3.904.385-.854 1.464-2.832 3.086-2.587.437.061.768.262 1.018.497l.115-.181c.506-.771.906-1.101 1.291-1.42.296-.244.602-.496 1.082-1.093.21-.262.374-.492.513-.686.42-.585.968-1.282 1.934-1.27 1.033.05 1.574.903 1.932 1.469.64 1.008.93 1.735 1.122 2.217.07.176.15.374.19.435.333.49 3.038.032 4.057-.134 2.29-.382 4.27-.712 5.087.731.585 1.033.15 2.399-1.33 4.168-.461.55-.952.97-1.388 1.297.361.215.684.546.815 1.065.309 1.228-.747 2.459-3.137 3.663-.593.301-1.393.702-2.512.896a9.867 9.867 0 0 1-1.408.125c-.01.234-.064.489-.207.75-.42.772-1.294 1.139-2.61 1.05-1.449-.075-2.642-.352-3.694-.594-.92-.21-1.71-.39-2.332-.348-1.153.093-2.041 1.016-3.084 2.213l-2.602 3.042Z"/><path d="m602.874 292.44-1.062-.665-.257-1.226.257 1.226-1.238.142c-.02-.115-.087-.38-.189-.793-.554-2.266-2.244-9.163-3.653-20.023a204.149 204.149 0 0 1-1.656-23.17c-.115-7.807.255-13.717.55-18.467.225-3.583.496-6.994.763-10.317.71-8.879 1.38-17.266.881-26.55-.11-2.073-.341-6.387-2.862-10.978-1.462-2.663-3.476-5.027-5.987-7.024l1.561-1.963c2.772 2.208 5 4.826 6.624 7.783 2.794 5.09 3.046 9.79 3.168 12.05.506 9.448-.17 17.916-.888 26.88-.264 3.31-.536 6.708-.758 10.276-.294 4.706-.66 10.564-.546 18.27.113 7.702.663 15.4 1.633 22.887 1.393 10.723 3.058 17.517 3.605 19.749.291 1.192.353 1.441.054 1.913Z"/><path d="M583.825 178.577c-.103 0-.207-.003-.312-.01-2.134-.115-4.11-1.393-5.875-3.796-.827-1.13-1.25-2.42-2.094-4.992-.131-.396-.768-2.408-1.154-5.176-.254-1.808-.222-2.564.137-3.233.397-.744 1.041-1.262 1.765-1.612a1.417 1.417 0 0 1 .098-.74c.427-1.044 1.563-.907 2.177-.841.311.039.699.09 1.117.068.659-.031 1.012-.227 1.548-.52.513-.282 1.15-.632 2.096-.826 1.865-.389 3.428.14 3.943.314 2.71.903 4.046 3.01 5.593 5.45.308.489 1.367 2.27 2.065 4.713.504 1.762.433 2.545.282 3.127-.309 1.197-1.037 1.882-2.886 3.395-1.93 1.583-2.9 2.376-3.732 2.858-1.936 1.118-3.153 1.82-4.768 1.82Z"/></g><path fill="#6c63ff" d="M53.853 176.506h245.708v63.82H53.853z"/><path fill="#6c63ff" d="M146.392 1h63.82v426h-63.82z"/><path d="M212.571 235.521c.452-1.758.721-3.585.787-5.468l79.82-72.693-68.606-33.506-30.237 80.632c-2.067-.54-4.224-.857-6.46-.857-1.187 0-2.346.11-3.49.266l-30.016-80.041-68.606 33.506 76.683 69.836c-.05.65-.099 1.3-.099 1.961 0 2.202.308 4.326.832 6.364-47.005 14.69-66.248 59.052-66.248 59.052l59.034 47.865c-3.52-35.208 17.98-71.254 29.605-87.869.76.068 1.527.116 2.305.116s1.545-.048 2.306-.116c11.624 16.615 33.125 52.66 29.604 87.87l59.034-47.866s-19.243-44.362-66.248-59.052Z" opacity=".2"/><path fill="#6c63ff" d="M221.239 325.19c-.689 0-1.382-.149-2.038-.456a4.696 4.696 0 0 1-2.733-4.208c-.484-30.867-18.084-61.162-28.533-76.472-.698-1.023-1.903-1.633-3.224-1.633h-.006c-1.37 0-2.575.61-3.272 1.633-10.449 15.31-28.05 45.605-28.533 76.472a4.697 4.697 0 0 1-2.733 4.208 4.747 4.747 0 0 1-5.038-.614l-49.067-39.785a4.797 4.797 0 0 1-1.223-5.918c4.96-9.552 24.056-41.745 61.53-54.983 1.673-.591 2.689-2.256 2.47-4.05a24.919 24.919 0 0 1-.183-2.99c.002-1.172-.445-2.237-1.229-2.95L86.885 149.2a4.768 4.768 0 0 1-1.51-4.203 4.767 4.767 0 0 1 2.629-3.611l58.732-28.683a4.783 4.783 0 0 1 3.858-.146 4.78 4.78 0 0 1 2.703 2.757l27.232 72.62a3.758 3.758 0 0 0 3.64 2.437 24.634 24.634 0 0 1 3.733.205 3.756 3.756 0 0 0 4.039-2.404l27.321-72.858a4.78 4.78 0 0 1 2.703-2.757 4.787 4.787 0 0 1 3.858.146l58.732 28.683a4.765 4.765 0 0 1 2.63 3.612 4.766 4.766 0 0 1-1.512 4.202l-73.905 67.308a3.741 3.741 0 0 0-1.207 2.41c-.02.2-.04.4-.065.6-.202 1.685.845 3.33 2.49 3.912 37.484 13.235 56.582 45.434 61.543 54.987a4.797 4.797 0 0 1-1.222 5.918l-49.068 39.785a4.752 4.752 0 0 1-3 1.07Z"/><path fill="#3f3d56" d="M635.656 428.392H429.593c-8.53 0-15.469-6.94-15.469-15.47V308.078c0-8.53 6.94-15.469 15.469-15.469h206.063c8.53 0 15.468 6.94 15.468 15.47v104.845c0 8.53-6.939 15.469-15.468 15.469ZM429.593 294.608c-7.427 0-13.469 6.042-13.469 13.47v104.845c0 7.427 6.042 13.469 13.469 13.469h206.063c7.426 0 13.468-6.042 13.468-13.47V308.078c0-7.427-6.042-13.469-13.468-13.469H429.593Z"/><path fill="#6c63ff" d="M518.102 292.728h35.206v135.543h-35.206z"/><path fill="#6c63ff" d="M415.124 343.777h235v35.206h-235z"/><path d="M525.752 383.284c.97.25 1.978.398 3.017.435l40.1 44.032 18.484-37.847-44.48-16.68c.297-1.14.472-2.33.472-3.563 0-.655-.06-1.294-.147-1.925l44.155-16.558-18.484-37.847-38.524 42.302c-.359-.027-.717-.054-1.082-.054-1.215 0-2.387.17-3.51.459-8.104-25.93-32.576-36.546-32.576-36.546l-26.405 32.566c19.423-1.942 39.307 9.919 48.473 16.331-.038.42-.065.843-.065 1.272s.027.852.065 1.272c-9.166 6.412-29.05 18.273-48.473 16.331l26.405 32.566s24.472-10.616 32.575-36.546Z" opacity=".2"/><path fill="#6c63ff" d="M570.315 421.696a2.852 2.852 0 0 1-2.109-.932l-37.132-40.773c-.306-.336-.752-.549-1.255-.6l-.16-.016c-.907-.1-1.735.39-2.019 1.195-7.329 20.78-25.172 31.355-30.466 34.1a2.853 2.853 0 0 1-3.524-.74l-21.949-27.072a2.844 2.844 0 0 1-.367-3.017 2.8 2.8 0 0 1 2.51-1.63c16.968-.262 33.64-9.947 42.07-15.697.506-.347.809-.945.808-1.599 0-.684-.302-1.281-.809-1.627-8.427-5.75-25.098-15.435-42.07-15.697a2.8 2.8 0 0 1-2.51-1.631 2.844 2.844 0 0 1 .368-3.018l21.95-27.07a2.861 2.861 0 0 1 3.522-.743c5.294 2.747 23.133 13.321 30.464 34.094.284.804 1.095 1.306 1.912 1.208.89-.113 1.775-.138 2.631-.075l36.026-39.558a2.852 2.852 0 0 1 4.675.67l15.825 32.402c.353.722.384 1.564.087 2.31a2.858 2.858 0 0 1-1.65 1.615l-40.062 15.023a1.86 1.86 0 0 0-1.198 1.792l.003.29a14 14 0 0 1-.129 1.884c-.11.807.393 1.61 1.196 1.911l40.19 15.072a2.861 2.861 0 0 1 1.65 1.617 2.863 2.863 0 0 1-.087 2.308l-15.825 32.403a2.849 2.849 0 0 1-2.566 1.601Z"/><path fill="#2f2e41" d="M383.69 171.688h-32.227v-10.61c0-17.787 14.44-32.227 32.227-32.227v42.837Z"/><path fill="#ffb6b6" d="m376.547 151.88 5.54 24.922-32.468-5.392 13.23-23.57 13.698 4.04z"/><path d="m376.547 151.88 5.54 24.922-32.468-5.392 13.23-23.57 13.698 4.04z" opacity=".1"/><path fill="#ffb6b6" d="M345.417 205.118h31.13v46.072h-31.13zM396.781 288.857l-6.848 36.733s4.358 25.526-8.717 51.675l-8.716 26.771-13.074-1.868s8.093-19.923 8.093-28.639 1.868-42.336 1.868-42.336l-.934-38.363 28.328-3.973Z"/><path fill="#2f2e41" d="M357.558 401.546s14.942-5.604 16.187 2.49l-.622 3.736s5.603 16.81-2.49 18.055-15.566 3.113-16.188-.623-.613-8.398.939-11.67 2.174-11.988 2.174-11.988Z"/><path fill="#ffb6b6" d="m349.65 283.159-3.637 37.188s-11.285 23.307-5.999 52.06l.927 28.14 13.078 1.842s-2.233-21.388.19-29.76c2.425-8.373 9.98-41.186 9.98-41.186l11.567-36.59-26.105-11.694Z"/><path fill="#2f2e41" d="M355.987 402.31s-12.795-9.538-16.242-2.11l-.44 3.762s-9.88 18.591-2.452 22.038 13.907 3.316 15.544-.099 2.924-7.897 2.344-11.47 1.246-12.12 1.246-12.12ZM388.687 229.71l26.772 56.656s-53.854 27.083-85.606 27.083l15.765-83.738h43.07Z"/><path fill="#e6e6e6" d="m364.718 163.405 15.564 2.49-1.245 39.223 17.433 34.866-22.413 11.206s-17.433-32.997-20.546-53.543-1.245-35.487-1.245-35.487l12.452 1.245Z"/><path fill="#e6e6e6" d="m352.888 164.65-15.564 2.49 1.245 39.224-3.736 36.11 8.717 9.961s17.432-32.997 20.545-53.542 1.245-35.488 1.245-35.488l-12.452 1.245ZM376.858 166.83l3.424-.935s12.14-1.556 14.009 3.425c1.867 4.98 1.245 34.242 1.245 34.242s3.212 35.914-9.29 36.323-10.01-29.475-10.01-29.475l.622-43.58Z"/><circle cx="371.114" cy="142.606" r="16.113" fill="#ffb6b6"/><path fill="#ffb6b6" d="M366.073 164.782c3.457-.877 7.376 2.815 8.755 8.248.58 2.163.634 4.434.157 6.622l1.486 6.176.109-.005 11.716 27.61c2.724 6.42 2.436 13.79-1.038 19.838-2.067 3.597-4.78 6.015-7.966 3.547-5.287-4.097-8.74-27.55-10.316-41.022l-3.645-13.694a14.025 14.025 0 0 1-3.02-5.897c-1.38-5.432.306-10.546 3.762-11.423Z"/><path fill="#e6e6e6" d="m351.02 166.83-3.424-.935s-12.14-1.556-14.008 3.425-1.245 34.242-1.245 34.242-3.213 35.914 9.289 36.323c12.502.41 10.011-29.475 10.011-29.475l-.622-43.58Z"/><path fill="#ffb6b6" d="M361.806 164.782c-3.457-.877-7.376 2.815-8.755 8.248a14.024 14.024 0 0 0-.158 6.622l-1.485 6.176-.11-.005-11.715 27.61c-2.724 6.42-2.436 13.79 1.038 19.838 2.067 3.597 4.78 6.015 7.966 3.547 5.286-4.097 8.74-27.55 10.316-41.022l3.645-13.694a14.025 14.025 0 0 0 3.02-5.897c1.379-5.432-.306-10.546-3.762-11.423Z"/><path fill="#2f2e41" d="M340.265 155.642c.82-2.492 2.438-4.674 3.162-7.196.96-3.348 3.007 4.08 3.207.602.38-6.61 10.467-23.612 16.227-26.878 5.759-3.266 9.067-2.282 14.934.786 0 0 2.848.18 6.394 1.931s6.737 4.555 8.116 8.26c1.093 2.938.972 6.164 1.338 9.277 1.017 8.673 5.879 16.92 4.835 25.59-.325 2.705-1.353 5.502-3.565 7.093-2.211 1.591-5.784 1.418-7.24-.885-.497-.786-.707-1.718-1.133-2.544-.425-.827-1.195-1.597-2.124-1.572-1.397.04-2.108 1.913-1.557 3.198s1.845 2.06 3.06 2.749c-2.894 1.302-6.485.897-9.016-1.018-2.53-1.915-3.898-5.26-3.432-8.4.656-4.424 7.102-3.508 7.86-7.916.554-3.208 2.495-8.577 1.966-11.79-.529-3.213-3.068.677-.393-1.179-2.943 1.419-9.238-8.287-12.318-9.374a12.582 12.582 0 0 1-7.094-6.392c-3.268 4.737-6.142 3.45-7.312 9.085-1.17 5.634-.089 18.435 4.73 21.58a12.281 12.281 0 0 0-4.37 5.35c-.513 1.219-.845 2.553-1.696 3.565-1.625 1.934-4.626 2.052-7.017 1.239-2.965-1.008-5.5-3.223-6.899-6.026s-1.641-6.16-.663-9.135Z"/></svg>