<svg width="210" height="214" viewBox="0 0 210 214" fill="none" xmlns="http://www.w3.org/2000/svg">
<g clip-path="url(#clip0_4_38)">
<path d="M210 213.61C210 213.661 209.99 213.712 209.97 213.759C209.951 213.807 209.922 213.85 209.886 213.886C209.849 213.922 209.806 213.951 209.758 213.971C209.711 213.99 209.66 214 209.608 214H0.391912C0.287974 214 0.188293 213.959 0.114798 213.886C0.0413036 213.812 1.52588e-05 213.713 1.52588e-05 213.61C1.52588e-05 213.506 0.0413036 213.407 0.114798 213.334C0.188293 213.261 0.287974 213.219 0.391912 213.219H209.608C209.66 213.219 209.711 213.229 209.758 213.249C209.806 213.268 209.849 213.297 209.886 213.333C209.922 213.37 209.951 213.413 209.97 213.46C209.99 213.508 210 213.558 210 213.61Z" fill="#CCCCCC"/>
<path d="M170.292 9.66836C170.034 8.2366 169.395 6.90004 168.441 5.79807C167.085 4.26099 165.439 3.00498 163.595 2.10174C161.752 1.19851 159.748 0.665743 157.698 0.533866C155.648 0.401989 153.591 0.673582 151.647 1.33314C149.702 1.9927 147.907 3.0273 146.363 4.37788L146.232 4.49596C144.39 2.7176 142.144 1.40775 139.686 0.677442C137.227 -0.0528701 134.628 -0.182123 132.109 0.30064C129.59 0.783403 127.224 1.86395 125.214 3.4507C123.203 5.03745 121.606 7.08363 120.558 9.41582C119.595 11.55 119.153 13.8811 119.269 16.218C119.386 18.555 120.056 20.8312 121.226 22.8602C121.751 23.775 122.368 24.6344 123.067 25.4251C123.788 26.245 143.258 47.817 143.452 48.0335C143.475 48.0604 143.504 48.0819 143.537 48.0967C143.569 48.1114 143.604 48.1189 143.64 48.1187C143.646 48.1187 143.656 48.1155 143.666 48.1155C143.68 48.1153 143.694 48.1119 143.706 48.1056C143.77 48.0901 143.826 48.0501 143.861 47.9941L143.963 47.8268L144.085 47.6202L145.886 44.6224C150.882 36.3078 157.616 28.4622 165.906 21.3055C166.439 20.8439 166.934 20.3393 167.384 19.7967C169.158 17.6849 170.228 15.0761 170.447 12.3317C170.51 11.4409 170.457 10.5459 170.292 9.66836Z" fill="#FA5858"/>
<path d="M80.9674 178.307L84.6341 166.414C80.2223 161.578 74.692 157.888 68.5233 155.664C74.5501 165.608 68.7101 178.58 71.1437 189.94C71.93 193.477 73.5054 196.793 75.7532 199.641C78.001 202.49 80.8636 204.798 84.1288 206.394L89.6931 213.261C92.6101 208.185 94.3876 202.54 94.903 196.714C95.4185 190.888 94.6597 185.02 92.6789 179.515C91.537 176.437 90.0104 173.515 88.1353 170.817C84.8288 174.688 80.9674 178.307 80.9674 178.307Z" fill="#F2F2F2"/>
<path d="M60.8057 179.827L58.7619 167.553C52.6477 165.184 46.0453 164.338 39.5281 165.087C49.3754 171.311 49.9573 185.516 57.2223 194.602C59.51 197.419 62.4048 199.687 65.6921 201.238C68.9795 202.789 72.5752 203.583 76.2127 203.562L84.2677 207.236C84.6056 201.397 83.6686 195.555 81.5212 190.112C79.3738 184.668 76.0671 179.753 71.8288 175.705C69.4285 173.458 66.7537 171.521 63.8673 169.939C62.6414 174.873 60.8057 179.827 60.8057 179.827Z" fill="#F2F2F2"/>
<path d="M101.06 99.3405L100.047 101.686L101.702 110.015L118.581 107.678L118.447 97.5212L118.108 95.2964L101.06 99.3405Z" fill="#FFB6B6"/>
<path d="M92.3388 207.292H96.0628L97.8349 192.986H92.3388V207.292Z" fill="#FFB6B6"/>
<path d="M102.729 210.828L97.0743 206.937V204.397L96.417 204.438L92.3387 204.679L91.1249 204.75L90.3742 213.718H93.0446L93.5188 211.207L94.7401 213.718H101.825C102.164 213.718 102.495 213.61 102.768 213.409C103.041 213.209 103.243 212.927 103.344 212.604C103.445 212.281 103.44 211.935 103.329 211.615C103.218 211.296 103.008 211.02 102.729 210.828Z" fill="#2F2E41"/>
<path d="M113.257 207.292H116.981L119.171 186.231L112.174 185.814L113.257 207.292Z" fill="#FFB6B6"/>
<path d="M123.647 210.828L117.993 206.937V204.397L117.276 204.438L113.126 204.687L112.043 204.75L111.292 213.718H113.963L114.437 211.207L115.658 213.718H122.743C123.083 213.718 123.413 213.61 123.686 213.409C123.959 213.209 124.161 212.927 124.262 212.604C124.363 212.281 124.358 211.935 124.247 211.615C124.136 211.296 123.926 211.02 123.647 210.828Z" fill="#2F2E41"/>
<path d="M90.7581 194.955H90.7725L91.4887 171.695C91.0253 170.804 90.7901 169.813 90.804 168.811C90.818 167.808 91.0808 166.824 91.5689 165.947L91.6714 165.762L91.4055 164.535C91.0641 162.958 91.2208 161.314 91.8541 159.829L92.5223 138.131C90.1353 122.724 101.511 112.676 101.511 112.676L100.465 104.601L118.865 105.018L118.552 112.676L122.21 125.195C124.136 143.878 124.25 162.18 122.281 180.046C122.277 180.097 122.284 180.148 122.303 180.196C122.503 180.802 122.573 181.442 122.51 182.076C122.446 182.71 122.25 183.323 121.933 183.877C121.851 184.018 121.795 184.173 121.767 184.334C121.361 187.466 121.308 183.504 120.77 186.608L120.875 186.661C121.252 186.79 121.413 187.31 121.236 187.822C121.059 188.334 120.609 188.643 120.233 188.514L110.397 188.619C110.02 188.489 109.858 187.969 110.036 187.458C110.213 186.946 110.662 186.636 111.039 186.766L111.651 187.074L110.627 183.738L110.268 183.404C110.096 183.244 109.963 183.048 109.878 182.829C109.793 182.611 109.759 182.376 109.778 182.143C109.797 181.909 109.869 181.683 109.988 181.481C110.108 181.279 110.271 181.107 110.467 180.977L110.764 171.292L110.909 167.192L110.611 162.541L109.231 141.62L104.01 167.347L98.6762 195.214C98.8006 195.326 98.8941 195.468 98.9476 195.626C99.0012 195.784 99.0131 195.953 98.9821 196.117C98.933 196.346 98.8054 196.551 98.6212 196.697C98.437 196.842 98.2076 196.92 97.9725 196.916H90.732C90.5802 196.915 90.4305 196.88 90.2945 196.813C90.1586 196.746 90.04 196.648 89.9481 196.528C89.8562 196.408 89.7934 196.268 89.7646 196.119C89.7359 195.971 89.7419 195.818 89.7823 195.672C89.8434 195.463 89.972 195.279 90.1484 195.149C90.3247 195.02 90.539 194.951 90.7581 194.955Z" fill="#2F2E41"/>
<path d="M97.1968 59.7606C97.1962 61.2457 97.5617 62.7082 98.2612 64.0198C98.9607 65.3313 99.9727 66.4519 101.208 67.2829C102.444 68.114 103.866 68.6303 105.349 68.7864C106.832 68.9425 108.33 68.7337 109.713 68.1783C111.096 67.6228 112.321 66.7378 113.28 65.6009C114.24 64.4639 114.904 63.1098 115.215 61.6574C115.527 60.205 115.475 58.6987 115.065 57.2708C114.656 55.8429 113.9 54.5369 112.865 53.4677L112.822 53.4242C112.749 53.3479 112.676 53.2717 112.599 53.1991L112.598 53.1989L112.597 53.1981L112.596 53.1969L112.596 53.1955C112.491 53.1195 112.395 53.0332 112.308 52.9378C111.078 51.2264 109.684 49.7913 106.306 50.6878C101.444 51.9786 97.1968 54.7487 97.1968 59.7606Z" fill="#2F2E41"/>
<path d="M147.238 55.8766C147.259 56.362 147.172 56.846 146.985 57.2946C146.797 57.7431 146.513 58.1452 146.153 58.4727C145.792 58.8001 145.364 59.0448 144.899 59.1896C144.433 59.3344 143.941 59.3757 143.458 59.3107L119.964 78.5135L116.376 72.2317L140.597 55.3313C140.761 54.5297 141.214 53.8157 141.871 53.3245C142.527 52.8334 143.342 52.5992 144.161 52.6664C144.979 52.7336 145.745 53.0975 146.312 53.6892C146.879 54.2809 147.208 55.0591 147.238 55.8766Z" fill="#FFB6B6"/>
<path d="M110.044 84.1766C110.044 84.1766 110.81 85.7581 113.786 83.5116C116.169 81.713 127.546 73.9533 130.073 70.6732C130.603 70.9118 131.198 70.968 131.764 70.8328C132.33 70.6977 132.834 70.3789 133.198 69.9266L126.982 63.9665C125.032 64.0977 125.012 65.3976 125.179 66.144L120.184 68.1208L107.174 75.5653L109.471 83.0431L110.044 84.1766Z" fill="#E6E6E6"/>
<path d="M108.551 69.4676C112.77 69.4676 116.19 66.0614 116.19 61.8597C116.19 57.658 112.77 54.2518 108.551 54.2518C104.332 54.2518 100.912 57.658 100.912 61.8597C100.912 66.0614 104.332 69.4676 108.551 69.4676Z" fill="#FFB7B7"/>
<path d="M118.971 99.5964L119.05 95.3523C119.36 94.9283 121.959 91.2272 121.376 87.53C121.104 85.7892 120.155 84.3274 118.564 83.1891L117.537 80.8086L116.017 77.2898L111.569 74.6526L110.953 73.4028L110.445 72.3651L104.309 71.755L102.796 73.7822L102.766 73.786C101.376 74.1005 100.071 74.7095 98.938 75.5714C97.6945 76.511 96.6866 77.7247 95.9933 79.1174C95.2999 80.5101 94.94 82.0438 94.9418 83.5983L94.9791 88.5305L94.9866 89.2372L94.9903 89.9217L98.8184 100.184L98.9641 100.582L100.465 104.603L100.208 105.027C99.9303 105.488 99.8279 106.034 99.919 106.564C100.01 107.094 100.289 107.574 100.704 107.917L100.884 110.432L101.209 110.342L103.057 109.829L117.04 105.942C117.567 105.796 118.032 105.484 118.366 105.053C118.378 105.038 118.389 105.021 118.4 105.005C118.455 104.936 118.504 104.863 118.545 104.785C118.863 103.986 118.896 103.77 118.9 103.547C119.364 103.02 119.632 102.35 119.66 101.65C119.687 100.95 119.471 100.261 119.05 99.7005L118.971 99.5964Z" fill="#E6E6E6"/>
<path d="M100.556 63.8542C100.626 63.8433 100.695 63.8288 100.764 63.8179C101.956 63.6074 103.147 63.4005 104.335 63.1864L104.444 60.5045L105.884 62.907C109.167 63.9921 112.239 63.3787 115.128 62.0251C116.081 61.5745 117.006 61.0667 117.898 60.5045C118.191 55.9689 116.35 53.0652 112.924 53.3697C112.799 53.3808 112.709 53.2536 112.599 53.1991L112.598 53.1988L112.597 53.1981L112.596 53.1969L112.596 53.1955C112.41 53.1084 112.22 53.0249 112.031 52.9487C110.547 52.3713 108.93 52.2251 107.366 52.5271C105.803 52.829 104.357 53.5667 103.198 54.6544C100.866 56.8718 99.8167 60.5335 100.556 63.8542Z" fill="#2F2E41"/>
<path d="M105.533 50.9066C105.457 51.1687 105.306 51.4031 105.099 51.5814C104.891 51.7597 104.636 51.8741 104.365 51.9109C103.337 53.1756 102.161 54.5146 100.551 54.7676C100.091 54.8648 99.6113 54.7822 99.2106 54.5369C99.1617 54.5063 99.1166 54.4701 99.0761 54.4291C98.6952 54.0683 98.6653 53.3429 99.1172 53.0714C97.093 53.8711 95.9091 56.0471 95.6103 58.1933C95.3115 60.3395 95.7261 62.5081 95.9987 64.658C96.2713 66.8079 96.3909 69.0658 95.5431 71.0632C94.5422 73.4177 92.2416 75.1101 89.7318 75.6495C89.5077 75.6978 89.2837 75.7388 89.0558 75.7648C88.9045 74.7438 88.5241 73.77 87.9429 72.9156C88.0966 73.9044 88.0056 74.9157 87.6777 75.8615C85.7905 75.8355 83.9371 75.3584 82.2735 74.4704C79.9991 73.2764 78.1056 71.4537 76.5557 69.4117C79.226 71.2975 82.9159 72.0043 85.8215 70.5127C88.4209 69.1736 89.9559 66.3616 90.6282 63.5272C91.3004 60.6892 88.4748 57.212 88.7811 54.3144C89.0911 51.4168 92.6001 48.9575 94.5197 46.7592C95.7447 45.3569 97.5523 44.3191 99.416 44.494C100.045 44.5537 100.654 44.7478 101.202 45.0631C101.749 45.3784 102.222 45.8075 102.587 46.3211C102.953 46.8347 103.203 47.4207 103.321 48.0394C103.439 48.658 103.422 49.2947 103.27 49.906C103.801 49.1583 105.171 49.322 105.511 50.1738C105.602 50.4084 105.61 50.6669 105.533 50.9066Z" fill="#2F2E41"/>
<path d="M100.764 63.8179C100.764 63.8179 103.027 55.4056 112.727 53.464C112.738 53.4604 112.774 53.4459 112.822 53.4242C112.851 53.406 112.887 53.3878 112.924 53.3697C112.814 53.308 112.709 53.2536 112.599 53.1991L112.598 53.1988L112.597 53.1981L112.596 53.1969L112.596 53.1955C112.501 53.1084 112.406 53.0213 112.308 52.9378L112.031 52.9487C112.031 52.9487 102.298 51.4136 100.764 63.8179Z" fill="#FD6584"/>
<path d="M125.108 103.906C125.021 103.687 124.876 103.496 124.687 103.354C124.499 103.212 124.275 103.124 124.04 103.1C123.568 103.059 123.094 103.128 122.654 103.3C120.926 103.873 119.375 104.878 118.148 106.218L118.169 107.069C117.593 107.801 117.285 108.707 117.297 109.637C117.309 110.567 117.641 111.465 118.236 112.182C118.572 112.595 119.031 112.89 119.546 113.027C119.804 113.091 120.074 113.084 120.328 113.008C120.582 112.932 120.811 112.788 120.99 112.593C121.507 111.967 121.257 111.023 120.878 110.307C120.215 109.06 119.245 108.001 118.059 107.229C120.04 107.179 121.984 106.698 123.758 105.819C124.151 105.648 124.505 105.4 124.8 105.09C124.946 104.934 125.051 104.743 125.104 104.537C125.158 104.33 125.159 104.113 125.108 103.906Z" fill="#2F2E41"/>
<path d="M160.612 154.008L156.915 154.154C155.991 155.856 155.498 157.757 155.479 159.692C157.678 157.039 161.891 157.393 164.839 155.601C165.755 155.036 166.53 154.272 167.109 153.367C167.688 152.462 168.055 151.439 168.183 150.374L169.564 148.152C167.854 147.838 166.095 147.897 164.41 148.325C162.725 148.752 161.153 149.539 159.802 150.63C159.051 151.25 158.381 151.961 157.808 152.748C159.218 153.288 160.612 154.008 160.612 154.008Z" fill="#F2F2F2"/>
<path d="M142.17 194.023L138.473 194.169C137.549 195.871 137.056 197.772 137.037 199.707C139.236 197.054 143.448 197.407 146.397 195.616C147.312 195.051 148.088 194.287 148.667 193.382C149.246 192.477 149.613 191.454 149.741 190.389L151.122 188.167C149.411 187.853 147.653 187.912 145.968 188.34C144.283 188.767 142.711 189.554 141.36 190.645C140.609 191.265 139.939 191.976 139.365 192.762C140.776 193.303 142.17 194.023 142.17 194.023Z" fill="#F2F2F2"/>
<path d="M55.0511 137.367L51.9179 135.408C50.19 136.293 48.7051 137.584 47.5921 139.17C50.911 138.218 54.187 140.879 57.6361 141.06C58.7123 141.108 59.7855 140.914 60.7763 140.493C61.767 140.072 62.65 139.434 63.3596 138.626L65.7591 137.57C64.5259 136.348 63.0416 135.408 61.4083 134.813C59.7751 134.218 58.0317 133.983 56.2985 134.124C55.3269 134.213 54.3704 134.423 53.4515 134.749C54.3089 135.989 55.0511 137.367 55.0511 137.367Z" fill="#F2F2F2"/>
<path d="M147.372 51.9239C147.298 51.4309 147.835 51.0796 148.036 50.623C148.165 50.2156 148.165 49.7785 148.036 49.3711C147.92 48.8177 147.787 48.2306 147.384 47.8318C146.973 47.4877 146.467 47.2762 145.932 47.2255C144.633 46.9995 143.306 46.9761 141.999 47.1562L142.99 47.2162C142.366 47.1766 141.74 47.249 141.141 47.4299C140.843 47.5238 140.573 47.6908 140.356 47.9156C140.139 48.1404 139.983 48.4158 139.901 48.7166C139.778 49.326 140.196 50.0397 140.818 50.0919C140.508 50.0289 140.185 50.0909 139.92 50.2643C139.655 50.4377 139.47 50.7084 139.405 51.0173C139.34 51.3262 139.401 51.6481 139.573 51.9128C139.746 52.1774 140.017 52.3633 140.326 52.4297C140.183 52.8148 139.758 52.9992 139.393 53.1913C139.029 53.3834 138.646 53.7129 138.707 54.1189C138.789 54.6557 139.509 54.766 140.053 54.7423L145.982 54.4847C146.493 54.5028 147 54.3979 147.461 54.1788C147.901 53.9236 148.207 53.3641 148.004 52.8995C147.847 52.5405 147.43 52.3111 147.372 51.9239Z" fill="#3F3D56"/>
<path d="M78.6121 104.514C77.7973 108.079 77.4101 112.121 79.5833 115.312C80.507 116.68 81.8627 117.703 83.4357 118.218C85.0279 118.688 86.7067 118.791 88.3448 118.518C92.0514 118.007 95.3458 116.084 98.9912 115.338C100.6 115.008 102.307 114.899 103.856 115.533C105.016 116.008 106.238 116.963 106.244 118.326C106.25 119.725 105.03 120.654 103.816 121.084C102.197 121.658 100.514 121.436 98.8348 121.363C97.026 121.286 95.1816 121.448 93.6789 122.552C92.3865 123.556 91.3954 124.895 90.8133 126.421C90.058 128.247 89.7515 130.209 89.2686 132.114C88.8369 133.827 88.2262 135.49 87.4466 137.075C85.9169 140.183 83.7725 142.952 81.1421 145.214C79.8448 146.326 78.2685 147.459 76.4968 147.561C75.1302 147.64 73.4691 147.068 72.9424 145.689C72.7467 145.094 72.7658 144.449 72.9965 143.867C73.2272 143.284 73.6549 142.8 74.2058 142.498C75.377 141.909 76.6524 142.749 77.0306 143.902C77.1298 144.167 77.1645 144.452 77.1319 144.734C77.0992 145.016 77.0001 145.285 76.8427 145.521C76.4876 146.049 77.3431 146.542 77.6958 146.018C78.5148 144.802 78.0867 143.166 77.0837 142.192C76.5944 141.695 75.9402 141.392 75.2434 141.341C74.5466 141.289 73.8546 141.492 73.2968 141.911C72.7172 142.35 72.279 142.949 72.0361 143.633C71.7931 144.317 71.7559 145.056 71.9291 145.761C72.3504 147.275 73.8443 148.239 75.3361 148.477C77.1784 148.772 78.9514 148.051 80.4385 147.009C81.9306 145.936 83.2872 144.688 84.479 143.292C86.902 140.517 88.7235 137.273 89.8294 133.764C90.9168 130.293 90.9959 125.709 94.2271 123.365C95.8898 122.159 97.9272 122.293 99.8766 122.403C101.598 122.501 103.276 122.483 104.855 121.707C106.159 121.067 107.21 119.884 107.232 118.377C107.254 116.857 106.17 115.634 104.892 114.941C101.517 113.11 97.4647 114.586 94.1491 115.809C90.815 117.039 87.0082 118.483 83.4648 117.188C81.8294 116.556 80.5127 115.303 79.8035 113.704C78.9454 111.892 78.8234 109.836 79.0216 107.869C79.1384 106.828 79.3198 105.795 79.5648 104.776C79.7057 104.159 78.7534 103.896 78.6121 104.514Z" fill="#3F3D56"/>
<path d="M94.9747 124.354C94.6713 123.973 94.4553 123.531 94.342 123.059C94.2287 122.586 94.2208 122.095 94.3188 121.619C94.4169 121.143 94.6185 120.694 94.9095 120.304C95.2005 119.914 95.5739 119.593 96.0032 119.362L90.9814 104.555L95.082 88.8634L101.694 91.8406L97.614 103.676L100.667 120.904C101.008 121.648 101.063 122.491 100.822 123.273C100.581 124.055 100.061 124.722 99.3592 125.147C98.6576 125.572 97.8237 125.726 97.0157 125.58C96.2076 125.434 95.4814 124.998 94.9747 124.354Z" fill="#FFB6B6"/>
<path d="M101.027 75.9345C101.027 75.9345 99.4743 75.1039 98.3942 78.6646C97.5295 81.5153 91.6449 96.9929 91.5388 101.126C90.9691 101.244 90.4549 101.547 90.0772 101.988C89.6995 102.428 89.4798 102.982 89.4527 103.561L97.9994 104.739C99.4991 103.49 98.7475 102.427 98.1715 101.921L101.082 97.0106L107.167 83.7531L102.161 76.515L101.027 75.9345Z" fill="#E6E6E6"/>
<path d="M84.6679 94.513C83.6909 97.7617 82.2181 100.841 80.301 103.644C79.8268 104.333 79.3284 105.004 78.8059 105.658C78.3998 104.923 77.9079 104.238 77.3404 103.618C75.348 101.437 72.6772 100.01 70.0854 98.5801C67.4936 97.1501 64.8623 95.6151 63.0313 93.2962C62.2096 92.2523 61.6213 91.0457 61.3056 89.7571C60.8907 88.009 61.0488 86.1853 62.073 84.7258C63.5615 82.6037 66.5287 81.8558 69.0513 82.4692C71.5773 83.0825 73.6915 84.8307 75.3315 86.838C74.7948 84.3715 77.4063 81.9903 79.9322 82.2068C82.4581 82.4266 84.4834 84.6241 85.1553 87.0578C85.8304 89.4882 85.3924 92.0924 84.6679 94.513Z" fill="#003C8F"/>
<path d="M133.495 4.27494C132.157 4.49259 130.877 4.9788 129.733 5.70408C128.589 6.42936 127.605 7.37857 126.84 8.49412C126.065 9.6459 125.549 10.9506 125.327 12.3192C125.104 13.6878 125.181 15.0882 125.552 16.4246C125.968 17.9742 126.758 19.3989 127.854 20.5744C128.288 21.0389 128.986 20.3419 128.553 19.8786C127.69 18.9355 127.037 17.8206 126.639 16.6078C126.24 15.395 126.105 14.1118 126.241 12.8429C126.387 11.6234 126.793 10.4489 127.43 9.39761C128.068 8.34628 128.923 7.44217 129.938 6.74536C131.076 5.95094 132.384 5.4301 133.758 5.22376C134.385 5.12981 134.118 4.18153 133.495 4.27494Z" fill="#3F3D56"/>
<g opacity="0.2">
<path d="M167.384 19.7967C166.934 20.3393 166.439 20.8439 165.905 21.3055C157.616 28.4622 150.882 36.3078 145.886 44.6223L144.085 47.6202L143.963 47.8268C143.538 47.5085 143.168 47.1242 142.866 46.6887C141.713 45.0192 141.707 42.8249 141.99 40.8176C142.847 34.799 145.921 29.313 150.615 25.4275C155.309 21.542 161.286 19.5348 167.384 19.7967Z" fill="black"/>
</g>
<g opacity="0.2">
<path d="M80.301 103.644C79.8268 104.333 79.3284 105.004 78.8059 105.658C78.3997 104.923 77.9078 104.238 77.3404 103.618C75.348 101.437 72.6772 100.01 70.0854 98.5801C67.4936 97.15 64.8623 95.6151 63.0313 93.2962C62.2096 92.2523 61.6213 91.0457 61.3056 89.7571C67.132 90.5616 72.4857 93.3902 76.4216 97.7437C77.9974 99.5111 79.3045 101.499 80.301 103.644Z" fill="black"/>
</g>
<path d="M143.449 47.7546C144.176 47.7546 144.766 47.1673 144.766 46.4427C144.766 45.7181 144.176 45.1307 143.449 45.1307C142.721 45.1307 142.132 45.7181 142.132 46.4427C142.132 47.1673 142.721 47.7546 143.449 47.7546Z" fill="#3F3D56"/>
</g>
<defs>
<clipPath id="clip0_4_38">
<rect width="210" height="214" fill="white"/>
</clipPath>
</defs>
</svg>
