<svg xmlns="http://www.w3.org/2000/svg" width="778.6" height="678.194" data-name="Layer 1"><path fill="#f2f2f2" d="M251.155 650.261a3.613 3.613 0 0 1-2.619-6.262l.248-.985-.098-.236a9.703 9.703 0 0 0-17.899.067c-2.927 7.05-6.654 14.113-7.572 21.567a28.705 28.705 0 0 0 .504 9.873 115.086 115.086 0 0 1-10.469-47.8 111.08 111.08 0 0 1 .689-12.391q.57-5.06 1.584-10.048a116.42 116.42 0 0 1 23.087-49.341 30.983 30.983 0 0 0 12.885-13.369 23.634 23.634 0 0 0 2.15-6.458c-.628.082-1.265.134-1.893.175l-.596.03-.074.004a3.58 3.58 0 0 1-2.94-5.832l.813-1c.412-.514.833-1.018 1.245-1.532a1.784 1.784 0 0 0 .133-.154c.473-.587.946-1.163 1.42-1.749a10.352 10.352 0 0 0-3.394-3.28c-4.741-2.777-11.282-.854-14.706 3.435-3.435 4.288-4.083 10.304-2.89 15.662a41.485 41.485 0 0 0 5.739 12.793c-.258.329-.525.648-.782.977a117.17 117.17 0 0 0-12.23 19.375 48.71 48.71 0 0 0-2.908-22.625c-2.783-6.715-8-12.37-12.595-18.175-5.518-6.972-16.835-3.93-17.807 4.91l-.027.256q1.023.578 2.004 1.226a4.901 4.901 0 0 1-1.976 8.919l-.1.015a48.767 48.767 0 0 0 1.285 7.292 50.21 50.21 0 0 0 25 31.468c.401.206.792.411 1.193.607a119.597 119.597 0 0 0-6.438 30.296 113.434 113.434 0 0 0 .083 18.315l-.031-.216a29.974 29.974 0 0 0-10.233-17.307c-7.874-6.469-19-8.85-27.494-14.05a5.625 5.625 0 0 0-8.616 5.472l.035.227a32.926 32.926 0 0 1 3.692 1.78q1.023.577 2.004 1.225a4.901 4.901 0 0 1-1.976 8.92l-.1.015-.206.03a48.808 48.808 0 0 0 8.978 14.058 50.254 50.254 0 0 0 36.445 15.992h.01a119.563 119.563 0 0 0 8.032 23.447h28.692c.103-.32.196-.648.288-.967a32.599 32.599 0 0 1-7.939-.473c2.129-2.612 4.257-5.245 6.386-7.857a1.781 1.781 0 0 0 .134-.154c1.08-1.337 2.17-2.664 3.25-4v-.002a47.75 47.75 0 0 0-1.399-12.164Z"/><path fill="#2f2e41" d="M347.31 98.541c0 19.33-9.67 39-29 39s-46-14-40-44c3.79-18.955 14.67-30 34-30a35 35 0 0 1 35 35Z"/><path fill="#ffb8b8" d="M266.224 374.716a10.761 10.761 0 0 0-2.303-16.34l8.462-37.292-18.6 6.998-5.183 34.34a10.82 10.82 0 0 0 17.624 12.294Z"/><path fill="#6c63ff" d="m305.702 242.532-12.981 1.321s3.395 19.231-1.915 23.563-3.169 4.31-3.138 7.521-2.058 8.581-6.307 11.832-13.088 61.156-13.088 61.156l-19.261.185a60.351 60.351 0 0 0-.144-14.981c-1.142-7.48-6.915-26.323-4.805-29.554s.999-9.172.937-15.592 9.123.674 9.02-10.027 11.679-77.847 10.516-87.468 10.526-18.294 10.526-18.294l10.701-.103Z"/><path fill="#ffb8b8" d="M443.514 152.226a10.196 10.196 0 0 1-9.52 12.402l-10.414 34.704-12.075-14.446 11.74-30.74a10.251 10.251 0 0 1 20.269-1.92Z"/><path fill="#6c63ff" d="M333.568 163.53s25.176-9.44 38.825 42.254l18.119 18.765 15.222-27.506-2.012-6.525 11.764-26.67 20.17 11.575-4.964 18.311.838 9.052-4.82 5.63-7.89 29.098-4.936 9.507s-6.224 12.172-17.09 14.177a28.137 28.137 0 0 1-8.783.25c-5.723-.748-11.993-3.385-18.438-9.205-23.908-21.594-38.048-38.252-38.048-38.252Z"/><path fill="#3f3d56" d="m454.94 174.524-44.817-43.252a1.326 1.326 0 0 1 1.736-2l47.52 37.021Z"/><path fill="#ccc" d="M473.398 179.318a30.252 30.252 0 0 1-6.952 1.553 42.138 42.138 0 0 1-3.616.176c-.42.015-.848.016-1.266.022-.997.014-1.994.029-3 .04-.85.017-1.707.03-2.552.037-1.244.019-2.61-.007-3.502-.881a3.919 3.919 0 0 1-.88-3.237 13.193 13.193 0 0 1 1.074-3.452c1.076-2.587 2.16-5.171 3.236-7.759l-.168-1.448a17.11 17.11 0 0 1 5.936.182 6.104 6.104 0 0 1 3.805 2.912 5.142 5.142 0 0 1 .404 1.014c.42 1.542.118 3.253.299 4.866a8.34 8.34 0 0 0 .185.997 6.777 6.777 0 0 0 3.598 4.51 6.26 6.26 0 0 0 3.399.468Z"/><path fill="#e6e6e6" d="M476.55 178.065a7.187 7.187 0 0 1-3.152 1.253 33.746 33.746 0 0 0 3.151-1.253Z"/><path fill="#6c63ff" d="M473.398 179.318a30.252 30.252 0 0 1-6.952 1.553 42.138 42.138 0 0 1-3.616.176c-.42.015-.848.016-1.266.022-.997.014-1.994.029-3 .04a14.575 14.575 0 0 1 .226-1.505c.94-4.642 3.67-8.59 6.723-12.14a5.142 5.142 0 0 1 .404 1.013c.42 1.542.118 3.253.299 4.866a8.34 8.34 0 0 0 .185.997 6.777 6.777 0 0 0 3.598 4.51 6.26 6.26 0 0 0 3.399.468Z"/><path fill="#ffb6b6" d="m299.8 250.089-1.781 8.487-1.514 31.304 60.836-8.237 4.671-36.248-6.457-10.61-55.755 15.304z"/><circle cx="530.233" cy="219.146" r="28.792" fill="#ffb7b7" transform="rotate(-61.337 331.375 341.347)"/><path fill="#6c63ff" d="m276.156 211.078-7.917-20.57a38.09 38.09 0 0 1 29.498-37.126l.108-.025 5.694-7.671 23.13 2.314 4.24 8.665 16.761 9.98 19.062 22.32c6.004 4.312 9.57 9.839 10.602 16.431 2.19 13.995-7.608 27.997-8.773 29.603l-3.003 16.913-69.437 9.95-.53.068Z"/><path fill="#2f2e41" d="M289.401 115.79c.261-.04.522-.095.783-.137 4.491-.796 8.982-1.579 13.46-2.39l.412-10.149 5.425 9.092c12.374 4.107 23.953 1.786 34.844-3.337a98.372 98.372 0 0 0 10.438-5.755c2.343-14.297-3.568-25.564-18.747-27.002-.472-.044-.81-.44-1.223-.645a.013.013 0 0 1-.013-.014c-.7-.33-1.415-.646-2.13-.934a31.716 31.716 0 0 0-33.291 6.455c-8.79 8.392-12.746 22.25-9.958 34.817Z"/><path fill="#ffb6b6" d="m342.209 604.549 16.518 7.59 37.136-60.102-24.379-11.202-29.275 63.714z"/><path fill="#2f2e41" d="m341.857 594.518 26.827 10.44-5.14 11.188 16.946 28.553a7.69 7.69 0 0 1-9.825 10.914l-31.087-14.286-.273-13.528-7.177 10.104-11.721-5.386Z"/><path fill="#ffb6b6" d="M270.001 641.839h18.179l8.648-70.118-26.83.001.003 70.117z"/><path fill="#2f2e41" d="M260.115 497.96v-.188l6.828-11.766-6.972-15.318-.495-93.09c-2.746-67.272 36.281-99.61 36.588-99.927l.847-.88 62.59-1.532s32.897 96.573 59.03 183.59c1.545 5.143 5.914 10.216 4.555 15.307-10.776 40.385-23.566 86.094-31.776 87.385l-26-14 4.832-69.992-2.97-7.617c-5.323-.98-19.158-54.675-19.158-54.675-2.32-2.753-2.2-10.239-2.2-10.239l-18.122-19.027-16.704 87.702 4.13 26.158-3.417 8.995-14.638 74.254-.156 1.196-27.597-2.755ZM263.845 632.872l28.737-1.716v12.312l27.32 18.87a7.69 7.69 0 0 1-4.37 14.018h-34.211l-5.897-12.178-2.303 12.178h-12.9ZM300.433 74.738v.024a17.412 17.412 0 0 1-.572 4.466c-.061.255-.134.523-.22.779v.012a17.664 17.664 0 0 1-10.89 11.34c-.377.146-.766.268-1.156.377a15.783 15.783 0 0 1-2.506.511 15.995 15.995 0 0 1-2.3.159 17.512 17.512 0 0 1-1.8-.086 17.039 17.039 0 0 1-4.101-.937 5.154 5.154 0 0 1-.609-.219 2.968 2.968 0 0 1-.292-.121 17.66 17.66 0 0 1-9.114-23.91l.013-.012a17.307 17.307 0 0 1 3.468-4.868c3.188-3.175 4.592-11.134 9.435-11.134a6.62 6.62 0 0 1 .694.024c3.248.11 9.254 7.12 11.81 8.774a17.223 17.223 0 0 1 4.842 4.588 17.44 17.44 0 0 1 2.847 6.278 17.669 17.669 0 0 1 .45 3.955Z"/><path fill="#2f2e41" d="M278.876 68.594c-2.74 3.19-7.03 4.43-10.9 6.09a45.855 45.855 0 0 0-26.64 33.5c-1.07 5.97-.93 12.15-2.62 17.97-1.68 5.82-5.84 11.53-11.81 12.54-4.04.69-8.09-.87-11.89-2.41q-3.135-1.26-6.27-2.53 3.27-8.205 6.53-16.41a83.161 83.161 0 0 1-12.11 14.17q-11.235-4.53-22.49-9.06c18.46.07 15.31-17.85 19.44-35.83 2.27-9.88 21.6-16.57 25.39-25.97a28.756 28.756 0 0 1 52.16-2.62c3.79 1.51 3.9 7.41 1.21 10.56ZM357.282 279.666a27.25 27.25 0 0 1 18.686 16.926c.82 2.368 1.333 5.176-.079 7.428a3.787 3.787 0 0 1-4.655 1.765c-1.844-.76-3.114-2.645-4.052-4.315a54.66 54.66 0 0 1-3.194-7.327c-1.448-3.798-4.538-10.137-.127-13.107 3.71-2.497 8.623-1.527 12.797-1.698 4.512-.185 9.526-1.913 11.128-6.589 1.559-4.547-2.095-8.824-6.034-10.553a15.683 15.683 0 0 0-14.64 1.395 21.228 21.228 0 0 0-8.5 12.295 1.501 1.501 0 0 0 2.892.797c1.239-4.522 3.918-8.776 8.1-11.094 3.913-2.17 9.282-2.303 12.934.505 1.806 1.39 3.224 3.701 2.3 5.997-.85 2.107-3.06 3.36-5.165 3.868-4.76 1.151-9.738-.338-14.482 1.182-4.525 1.45-7.132 5.15-6.48 9.952a36.095 36.095 0 0 0 2.384 7.848 67.798 67.798 0 0 0 3.242 7.573c1.883 3.56 5.28 7.413 9.761 6.37 5.109-1.19 6.321-7.154 5.227-11.54-2.497-10.003-11.457-18.015-21.246-20.57a1.501 1.501 0 0 0-.797 2.892ZM402.176 552.884c-2.12-2.508-5.146-4.038-8.086-5.503l-24.664-12.285-.703 4.377c-.932-2.879-5.51-3.09-7.365-.7s-1.262 6.004.548 8.43 4.558 3.939 7.22 5.38l17.703 9.58c2.75 1.489 5.588 3.005 8.695 3.345s6.59-.78 8.138-3.496c1.627-2.853.634-6.62-1.486-9.128ZM306.228 575.76c-3.017-1.296-6.407-1.314-9.691-1.312l-27.555.022 1.326 4.23c-2.12-2.16-6.31-.304-6.902 2.663s1.552 5.936 4.255 7.298 5.837 1.49 8.861 1.59l20.12.666c3.124.104 6.34.193 9.273-.89 2.932-1.084 5.547-3.641 5.72-6.763.181-3.279-2.39-6.207-5.407-7.503Z"/><path fill="#f0f0f0" d="M461.098 382.294c-40.413 0-84.329-8.053-127.95-23.539-53.942-19.15-103.402-48.054-143.031-83.589l1.173-2.353c39.439 35.363 88.68 64.135 142.399 83.204 48.546 17.235 97.455 25.22 141.423 23.113l.077 2.83q-6.965.335-14.091.334ZM99.053 234.813c-32.38-42.745-19.539-91.53-38.51-125.563C-12.162-21.19 77.366-9.172 178.587 16.194l.241 2.814C114.404 28.95 72.036 62.106 62.585 109.974c-7.344 37.202 6.133 80.82 37.95 122.821Z"/><path fill="#f0f0f0" d="M411.47 386.542c-40.413 0-86.858-44.847-127.95-23.539-124.414 64.514-107.288-43.44-143.031-83.589l1.173-2.354c39.439 35.364 88.68 64.136 142.399 83.205 48.545 17.235 97.455 25.22 141.423 23.113l.076 2.829q-6.965.336-14.09.335ZM504.181 368.733l-.676-2.682c36.143-16.387 33.038-65.195 65.375-76.341 246.334-84.904 3.175-94.478-51.518-139.389-48.91-40.16-102.214-86.854-169.957-110.902l.54-2.737c68.039 24.153 128.69 63.744 170.78 111.477 42.302 47.973 60.839 98.501 52.197 142.275-6.815 34.52-29.894 61.594-66.74 78.3ZM172.298 387.725C128.798 316.602 71.002 253.072 0 215.2l1.76-1.567c31.48 63.586 92.348 124.493 171.394 171.504ZM451.492 469.541q-12.286 0-24.991-.736l.09-2.829c62.476 35.546 118.21 27.092 161.3-29.34l.79 2.627c-36.912 19.945-83.96 30.278-137.189 30.278Z"/><ellipse cx="464.297" cy="431.139" fill="#fd6584" rx="8.447" ry="11.327"/><ellipse cx="378.422" cy="344.442" fill="#e6e6e6" rx="8.447" ry="11.327" transform="rotate(-81.367 208.567 411.541)"/><ellipse cx="140.033" cy="101.004" fill="#e6e6e6" rx="8.447" ry="11.327"/><path fill="#3f3d56" d="M159.23 177.207c-11.018-15.354-31.81-23.288-46.443-17.722-14.633 5.567-17.565 22.526-6.548 37.88s43.446 39.506 58.079 33.94 5.928-38.744-5.089-54.098Zm.067 47.225c-1.801 2.641-6.22 2.764-9.87.274s-5.15-6.649-3.348-9.29 6.22-2.763 9.87-.273 5.15 6.649 3.348 9.29Z"/><path fill="#6c63ff" d="m146.793 192.226-4.116 3.327a16.216 16.216 0 0 1-5.85 3.458 15.912 15.912 0 0 1-8.98-.535 21.5 21.5 0 0 1-10.538-7.489l2.966.662a23.117 23.117 0 0 1-3.792-6.094c-.696-2.056-.308-4.144 1.57-4.707 2.149-.645 5.608.805 7.412-.237 3.12-1.802-2.009-8.513.834-10.583 1.657-1.206 4.972-.013 7.735 1.17a43.568 43.568 0 0 1 9.694 5.177c4.908 3.79 7.625 9.764 5.62 13.222a10.15 10.15 0 0 1-2.555 2.629Z"/><path fill="#2f2e41" d="M145.782 203.74c-2.4.328-5.176-1.517-7.49-3.218l-.59-.772a12.508 12.508 0 0 1-.598-4.581 3.18 3.18 0 0 1 2.702-2.904c1.408-.185 3.286.422 4.216-.392 1.797-1.575-2.371-5.914-.465-7.388 1.07-.827 3.342.234 4.322 1.655a7.478 7.478 0 0 1 1.057 4.41l.095 6.8a11.42 11.42 0 0 1-.4 3.977 3.522 3.522 0 0 1-2.85 2.412Z"/><path fill="#ff6584" d="M146.383 211.294c-3.326-.982-8.397-4.41-12.717-7.436l-1.286-1.119a23.377 23.377 0 0 1-3.395-5.048c-.499-1.365.143-2.162 2.351-1.503 1.955.584 5.034 2.243 5.944 1.916 1.76-.632-6.72-7.396-4.745-7.864 1.108-.263 5.013 2.08 7.227 4.083a17.546 17.546 0 0 1 3.972 5.123l3.882 7.057a10.837 10.837 0 0 1 1.603 3.874c.027 1.001-.818 1.513-2.836.917Z"/><path fill="#6c63ff" d="M617.135 27.738c1.305-16.517 12.236 2.972 28.753 4.277a30 30 0 1 1-4.725 59.814c-16.518-1.305-25.333-47.574-24.028-64.091ZM719.965 186.328a30 30 0 0 1 32.27-27.544c16.517 1.305 27.566-31.496 26.26-14.978s-14.468 76.096-30.985 74.792a30 30 0 0 1-27.545-32.27Z"/><path fill="#3f3d56" d="M757.616 222.48c-4.516 2.177-9.733.894-13.631-1.981-4.434-3.27-6.62-8.47-7.343-13.806a42.492 42.492 0 0 1 1.406-17.07c1.541-5.34 4.844-10.883 10.746-11.984 3.933-.734 8.131.944 9.221 5.028a9.836 9.836 0 0 1-2.526 9.312c-3.53 3.392-9.196 3.133-13.296.978-4.822-2.536-7.483-7.608-8.361-12.824-1.044-6.2.414-12.431 2.489-18.265 2.255-6.34 5.064-12.49 7.643-18.703 5.031-12.114 9.757-24.49 11.761-37.518 3.06-19.901-1.705-43.52-19.153-55.703-9.419-6.576-21.231-8.44-32.468-7.024-11.851 1.493-22.74 6.693-32.384 13.578a137.506 137.506 0 0 0-14.26 11.916 9.82 9.82 0 0 1-10.698 2.267c-9.274-3.775-6.318-18.865 3.24-19.99 4.344-.51 8.818 1.913 11.764 4.941a23.284 23.284 0 0 1 6.015 12.418c1.636 9.792-1.995 20.142-8.301 27.627-7.124 8.456-17.95 13.216-28.49 15.723-11.999 2.855-24.34 3-36.606 3.272-12.552.278-25.252.755-37.367 4.356a92.343 92.343 0 0 0-27.227 13.379 96.454 96.454 0 0 0-35.63 48.08 88.352 88.352 0 0 0-3.37 14.384c-.282 1.91 2.71 2.139 2.992.236 3.154-21.274 14.672-40.838 30.863-54.843a91.476 91.476 0 0 1 27.319-16.389c12.038-4.567 24.824-5.725 37.6-6.098 13.05-.38 26.216-.173 39.07-2.786 11.363-2.31 22.87-6.84 31.15-15.229 7.3-7.397 11.816-17.98 11.332-28.44-.451-9.731-5.811-20.137-15.74-23.03-4.66-1.356-9.662-.493-13.122 3.064a15.13 15.13 0 0 0-3.275 15.493 12.551 12.551 0 0 0 15.355 6.968 15.275 15.275 0 0 0 5.754-3.762c9.376-8.779 19.868-16.836 32.077-21.208 11.387-4.077 24.486-4.914 35.817-.21 21.45 8.902 27.896 34.74 24.898 55.788-1.962 13.774-7.177 26.816-12.511 39.575-2.724 6.516-5.751 12.99-7.836 19.746-1.867 6.05-2.805 12.542-1.274 18.775 1.337 5.44 4.5 10.44 9.56 13.076 4.596 2.394 10.428 2.807 14.931-.04 6.51-4.116 7.975-15.48.663-19.622-4.852-2.748-11.065-1.398-15.089 2.211-4.511 4.046-6.354 10.105-7.284 15.904-1.757 10.957-.376 24.45 10.446 30.311 4.459 2.415 9.775 3.068 14.435.82a1.501 1.501 0 0 0-1.305-2.7Z"/><path fill="#6c63ff" d="M490.18 187.235c1.384-17.515-22.582-64.348-12.272-77.026q1.918-2.376 4.025-4.597a82.599 82.599 0 0 1 15.231-12.75 72.86 72.86 0 0 1 2.85-1.801 84.194 84.194 0 0 1 10.605-5.352c.663-.268 1.336-.536 2.01-.804a83.506 83.506 0 0 1 83.873 141.796c-.796.68-1.61 1.337-2.443 1.983a83.165 83.165 0 0 1-27.759 14.249c-.01-.001-.01.009-.02.008a83.831 83.831 0 0 1-46.27.207l-.02-.002c-.334-.096-.667-.193-1-.3-37.023-10.939-31.972-15.586-28.81-55.61Z"/><path fill="#3f3d56" d="M510.58 86.087a1.58 1.58 0 0 1 .039-.378c.663-.268 1.336-.536 2.01-.804a1.5 1.5 0 0 1 .94 1.419 20.496 20.496 0 0 0 .518 4.504c2.898 12.829 16.03 20.306 27.755 23.51 14.344 3.931 29.758 3.985 43.14 11.091a37.888 37.888 0 0 1 13.822 11.825 26.922 26.922 0 0 1 4.386 18.754c-2.045 15.477-13.961 26.773-18.868 41.142-2.023 5.919-2.52 12.22-.22 18.139 1.95 5.029 5.801 9.616 11.337 10.656a1.453 1.453 0 0 1 1.063.756c-.796.68-1.61 1.337-2.443 1.983a14.578 14.578 0 0 1-2.9-1.001c-5.298-2.525-8.722-7.56-10.436-13.042-1.976-6.346-1.224-12.947.99-19.122 5.16-14.398 17.911-26.24 18.706-42.138.687-13.778-10.638-23.3-22.454-27.884-14.619-5.67-31.006-4.827-45.41-11.191-11.33-5.008-21.923-15.044-21.976-28.219Z"/><path fill="#3f3d56" d="M497.164 92.862a72.86 72.86 0 0 1 2.85-1.801 1.248 1.248 0 0 1 .252 1.003 50.765 50.765 0 0 0 9.65 36.202 50.158 50.158 0 0 0 12.073 11.727c4.874 3.325 10.353 5.332 15.762 7.585 5.322 2.216 10.704 4.818 14.559 9.225 3.928 4.494 5.577 10.292 5.755 16.164.415 13.916-7.495 26.05-9.127 39.594-.728 6.041.143 12.039 3.516 17.21 2.917 4.464 7.486 7.714 12.97 7.505 1.81-.078 1.693 2.561.097 2.947a1.602 1.602 0 0 1-.334.044c-6.379.238-11.837-3.684-15.21-8.846-3.93-5.998-4.902-13.006-3.906-20.02 1.934-13.57 10.148-26.111 8.91-40.152a21.073 21.073 0 0 0-7.856-15.226c-4.744-3.695-10.538-5.648-16.035-7.928a55.6 55.6 0 0 1-15.152-8.96 54.893 54.893 0 0 1-11.244-13.338 53.18 53.18 0 0 1-7.53-32.935ZM477.908 110.21q1.918-2.377 4.025-4.598a56.746 56.746 0 0 0-.974 23.376 58.902 58.902 0 0 0 11.663 26.832 51.603 51.603 0 0 0 10.67 10.202c4.606 3.273 9.697 6.133 12.747 11.068 6.617 10.714.569 23.538-2.684 34.235-1.705 5.583-2.86 11.58-.973 17.267 1.468 4.41 4.72 8.689 9.527 9.56 1.89.34 1.662 3.341-.236 2.99q-.534-.102-1.065-.234c-5.218-1.375-8.983-5.645-10.812-10.685-2.37-6.577-1.26-13.39.731-19.924 3.277-10.745 10.013-24.788.72-34.51-3.92-4.102-9.227-6.618-13.51-10.316a55.759 55.759 0 0 1-10.02-11.315 62.586 62.586 0 0 1-9.809-43.949ZM535.224 324.344v-1.926H502.93V277.48h-1.921v44.938h-37.01v-34.704q-.971.763-1.917 1.57v33.134h-24.445c-.272.637-.533 1.28-.78 1.926h25.225v37.762h-31.32c.029.647.073 1.284.128 1.926h31.192v30.125h-23.368c.286.647.588 1.284.904 1.917h22.464v25.324h1.916v-25.324h37.01v25.324h1.922v-25.324h32.294v-1.917H502.93a30.12 30.12 0 0 1 30.125-30.125h2.169v-1.926H502.93v-37.762Zm-34.215 69.813h-37.01v-30.125h37.01Zm0-32.051h-37.01v-.756a37.008 37.008 0 0 1 37.01-37.006Z"/><path fill="#cacaca" d="m443.869 677.887-275.75.307a1.19 1.19 0 1 1 0-2.381l275.75-.307a1.19 1.19 0 1 1 0 2.38Z"/></svg>